<svg class="social-medium-image" viewBox="0 0 56 56" xmlns="http://www.w3.org/2000/svg"
    xmlns:xlink="http://www.w3.org/1999/xlink">
    <defs>
        <circle id="path-1" cx="28" cy="28" r="28"></circle>
    </defs>
    <g fill="none" fill-rule="evenodd">
        <g transform="translate(-466 -369)">
            <g transform="translate(120 189)">
                <g transform="translate(54 180)">
                    <g id="Whatsapp-hover" transform="translate(292)">
                        <use fill="#0D9F16" xlink:href="#path-1"></use>
                        <use class="image-filter" fill-opacity="0.2" fill="#000" xlink:href="#path-1"></use>
                        <g transform="translate(13 12)">
                            <path
                                d="M17.642644,28.0096291 C16.9446524,28.1278206 16.2430562,28.1906038 15.8734156,28.182968 C13.1552465,28.1749406 10.9390414,27.5685806 8.90103721,26.3405891 C8.64032262,26.1829785 8.41277082,26.1434291 8.10827611,26.2224627 C6.73831205,26.6002059 5.35851712,26.9388564 3.98645581,27.3009364 C3.69782156,27.3876059 3.67029514,27.3246922 3.74356786,27.0646838 C4.10711332,25.7656859 4.44922748,24.4743891 4.82496321,23.1907933 C4.92943256,22.8287133 4.8921408,22.5530417 4.68444736,22.2300543 C1.86547907,17.7184122 1.98410486,12.0965133 5.13909218,7.92306484 C8.41676871,3.57673432 12.8726419,1.79720379 18.2041831,2.93089011 C23.4583882,4.03351116 26.8073712,7.41107537 28.0389167,12.6161385 C29.7211091,19.7341954 24.8697074,26.8127027 17.642644,28.0096291 M30.5651873,11.8836248 C28.8668723,4.86803116 22.8061429,0.0826101053 15.4799188,-1.30526316e-05 C14.5151175,0.0157153684 13.5050288,0.0942922105 12.5066715,0.303134316 C2.28650233,2.36401432 -3.00938562,13.6474269 1.97230782,22.7577722 C2.1006334,23.0017259 2.11079197,23.1988206 2.03955095,23.4508017 C1.37721268,25.8523554 0.720904017,28.2539091 0.060597463,30.6474354 C-0.0462312896,31.0412985 -0.0462312896,31.0412985 0.349297252,30.9389659 C2.85007315,30.2854206 5.34678562,29.6395764 7.84559535,28.9783954 C8.05283002,28.9231827 8.2151704,28.9465469 8.40464397,29.0413091 C11.6232698,30.6788922 15.0135425,31.1594901 18.5636651,30.4745533 C27.0461958,28.8365133 32.5894939,20.2457933 30.5651873,11.8836248"
                                fill="#FCFCFC"></path>
                            <path
                                d="M19.5243964,22.7735333 C18.9730159,22.7972891 18.44713,22.6711354 17.9191469,22.5292533 C14.3709905,21.513628 11.7082674,19.3012069 9.56900529,16.3875985 C8.7605148,15.2930701 8.01153383,14.1593838 7.76255074,12.7971459 C7.46382347,11.1591712 7.93629493,9.77356905 9.16010677,8.63949116 C9.54960571,8.28511221 10.7354049,8.12789326 11.209908,8.35605326 C11.3860116,8.442788 11.4986078,8.60039853 11.571815,8.76564484 C12.0204302,9.82878168 12.4633436,10.8757333 12.9021934,11.9388701 C12.9852315,12.1436659 12.9495782,12.3404343 12.8568404,12.5451648 C12.6313203,13.0333985 12.2694133,13.4268701 11.9018044,13.8127059 C11.6232632,14.0965354 11.6111385,14.3561522 11.8167347,14.6948027 C13.0701702,16.7734343 14.8038108,18.2852554 17.0713985,19.1907164 C17.4094493,19.3245712 17.6645275,19.2773859 17.8895888,18.9940133 C18.2673562,18.5295354 18.666555,18.0647312 19.0243985,17.5845901 C19.2693182,17.2459396 19.5503499,17.1987543 19.8960687,17.3559733 C20.6454429,17.6946238 21.3944239,18.0490027 22.1437981,18.4033817 C22.3118404,18.4743227 22.4777854,18.5609922 22.6438615,18.6396343 C23.4029355,19.0177691 23.3952674,19.0254048 23.3299905,19.8599248 C23.2033034,21.4898722 21.9757558,22.2933922 20.520722,22.6948912 C20.2004979,22.7811691 19.8604154,22.7892617 19.5243964,22.7735333"
                                fill="#FDFDFD"></path>
                        </g>
                    </g>
                </g>
            </g>
        </g>
    </g>
</svg>