<?xml version="1.0" encoding="utf-8"?>

<!DOCTYPE svg PUBLIC "-//W3C//DTD SVG 1.1//EN" "http://www.w3.org/Graphics/SVG/1.1/DTD/svg11.dtd">

<!-- License: PD. Made by Icooon Mono: https://icooon-mono.com/ -->
<svg height="800px" width="800px" version="1.1" id="_x32_" xmlns="http://www.w3.org/2000/svg"
    xmlns:xlink="http://www.w3.org/1999/xlink" viewBox="0 0 512 512" xml:space="preserve">
    <style type="text/css">
        .st0 {
            fill: #62646a;
        }
    </style>
    <g>
        <path class="st0" d="M264.778,132.188h0.008c0.008,0.008,0.008,0.008,0.008,0.008L264.778,132.188z" />
        <path class="st0"
            d="M397.04,291.532c9.927-12.098,21.84-31.151,20.335-51.746L315.137,137.549c0,0-18.518-4.589-40.648,0.215
		c-3.202-2.091-6.442-3.996-9.704-5.575c-16.569-8.05-33.101-9.875-45.481-9.756c-0.794,0-1.55,0.037-2.313,0.06l-18.963,18.963
		l2.958-0.297c0.348-0.03,0.868-0.126,1.208-0.207c0.46-0.111,7.814-1.809,18.266-1.794c9.371,0,21.151,1.401,32.849,6.227
		c-6.628,3.455-13.174,8.021-19.282,14.13c-33.798,33.798-64.52,64.519-64.52,64.519l0.015,0.015
		c-0.185,0.185-0.37,0.341-0.556,0.526c-8.755,8.748-9.088,22.715-1.008,31.878c0.311,0.348,0.653,0.72,1.008,1.075
		c9.089,9.097,23.842,9.111,32.953,0l35.488-35.488c6.115,2.232,12.135,3.544,17.91,4.196c7.858,0.89,15.264,0.556,21.833-0.371
		c16.02-2.268,23.626-4.67,23.626-4.67l83.646,83.653c0,0,0.474-0.415,1.193-1.075l12.084,12.084
		c3.15,3.159,4.685,7.213,4.693,11.35c-0.008,4.122-1.549,8.184-4.7,11.342c-3.158,3.144-7.206,4.685-11.335,4.693
		c-4.13-0.008-8.185-1.549-11.343-4.693c-1.557-1.557-3.714-2.454-5.916-2.447c-2.209-0.007-4.359,0.89-5.916,2.447
		c-1.556,1.557-2.446,3.707-2.446,5.916c0,2.201,0.89,4.351,2.446,5.916c3.151,3.15,4.693,7.206,4.7,11.342
		c-0.008,4.122-1.549,8.185-4.707,11.336c-3.159,3.15-7.213,4.693-11.335,4.707c-4.137-0.014-8.184-1.557-11.343-4.707
		c-1.556-1.55-3.714-2.447-5.915-2.439c-2.21-0.008-4.36,0.89-5.916,2.439c-1.557,1.564-2.446,3.714-2.446,5.923
		c0,2.194,0.89,4.352,2.446,5.916c3.15,3.15,4.692,7.206,4.7,11.328c-0.008,4.136-1.55,8.198-4.7,11.342
		c-3.159,3.158-7.213,4.7-11.343,4.708c-4.129-0.008-8.184-1.55-11.342-4.708l-7.08-7.072c-0.008-0.015-0.023-0.03-0.037-0.045
		c-1.549-1.549-3.714-2.447-5.908-2.447c-2.21,0-4.36,0.898-5.916,2.461c-1.557,1.543-2.454,3.707-2.454,5.909
		c0,2.202,0.897,4.351,2.454,5.908c3.15,3.158,4.692,7.221,4.7,11.357c-0.015,4.122-1.557,8.184-4.707,11.335
		c-3.151,3.151-7.206,4.693-11.336,4.7c-4.136-0.008-8.192-1.549-11.342-4.7l-5.034-5.033l1.742-1.735
		c9.058-9.059,9.066-23.745,0.007-32.804c-9.059-9.059-23.746-9.059-32.804,0l-1.742,1.742l-0.868-0.859
		c4.463-8.726,3.144-19.631-4.152-26.926c-7.294-7.294-18.199-8.614-26.925-4.152l-1.728-1.727
		c4.463-8.719,3.151-19.624-4.144-26.918c-7.294-7.295-18.207-8.614-26.925-4.152l-1.728-1.727
		c4.463-8.718,3.151-19.624-4.144-26.918c-7.302-7.295-18.207-8.614-26.926-4.152l-8.377-8.377l-0.512-0.474
		c-0.074-0.059-1.349-1.157-3.306-3.114c-1.06-1.06-2.328-2.387-3.714-3.936l-0.007-0.008l-0.186-0.2l0.03,0.037
		c-4.396-4.938-9.92-12.129-14.012-20.579c-2.543-5.249-4.53-10.928-5.501-16.881l-13.759,13.76
		c1.208,3.663,2.624,7.169,4.211,10.424c5.034,10.349,11.461,18.652,16.576,24.397l0.023,0.045l0.185,0.2l-0.008-0.022
		c1.601,1.787,3.069,3.321,4.337,4.596c1.979,1.972,3.418,3.262,4.026,3.788l7.302,7.303l-13.478,13.477
		c-9.06,9.059-9.052,23.738,0,32.798c9.059,9.058,23.737,9.058,32.804,0c-9.067,9.058-9.06,23.745,0,32.804
		c9.059,9.052,23.737,9.052,32.797,0c-9.06,9.052-9.06,23.746,0,32.798c9.066,9.059,23.745,9.059,32.804,0l13.47-13.471l0,0
		l-6.709,6.717c-9.066,9.06-9.06,23.738,0,32.797c9.06,9.06,23.731,9.06,32.797,0l6.709-6.716l5.034,5.033
		c6.375,6.384,14.812,9.615,23.174,9.601c8.355,0.014,16.791-3.217,23.167-9.601c5.345-5.345,8.452-12.135,9.326-19.111
		c2.98,0.867,6.056,1.312,9.133,1.312c8.362,0,16.791-3.217,23.174-9.608c6.376-6.376,9.608-14.812,9.601-23.16
		c0-0.615-0.059-1.223-0.089-1.831c0.608,0.03,1.223,0.081,1.831,0.081c8.355,0.015,16.791-3.217,23.166-9.6
		c6.384-6.383,9.608-14.812,9.601-23.167c0-0.615-0.045-1.23-0.081-1.838c0.607,0.037,1.215,0.09,1.831,0.09
		c8.354,0,16.792-3.218,23.159-9.593c6.39-6.383,9.615-14.812,9.608-23.174c0.014-8.362-3.21-16.799-9.593-23.175L397.04,291.532z" />
        <path class="st0" d="M138.565,58.974L0,197.53l57.454,57.462l138.571-138.565L138.565,58.974z M69.278,205.981
		c-5.597,5.605-14.678,5.605-20.276,0c-5.597-5.59-5.597-14.678,0-20.268c5.597-5.605,14.679-5.605,20.276,0
		C74.883,191.303,74.883,200.392,69.278,205.981z" />
        <path class="st0" d="M373.436,55.593l-57.461,57.453l138.572,138.564L512,194.157L373.436,55.593z M442.715,202.609
		c-5.597-5.597-5.597-14.686,0-20.276c5.604-5.605,14.678-5.605,20.283,0c5.597,5.589,5.597,14.678,0,20.276
		C457.393,208.206,448.319,208.206,442.715,202.609z" />
    </g>
</svg>