<svg height="20" fill="none" xmlns="http://www.w3.org/2000/svg" width="120" viewBox="0 0 120 20">
    <rect width="24" height="20" rx="2" fill="#1434CB" />
    <g clip-path="url(#a)">
        <path
            d="m9.42 6.299-2.809 6.7H4.78L3.397 7.652c-.084-.33-.157-.45-.412-.589-.416-.226-1.104-.438-1.71-.57l.042-.194h2.949c.376 0 .714.25.799.683l.73 3.877 1.804-4.56h1.82Zm7.178 4.512c.008-1.768-2.445-1.866-2.428-2.655.005-.24.234-.496.735-.562.248-.032.933-.057 1.709.3l.304-1.42a4.657 4.657 0 0 0-1.621-.298c-1.713 0-2.919.911-2.93 2.215-.01.965.861 1.503 1.518 1.823.676.329.902.54.9.833-.005.45-.539.648-1.038.656-.871.013-1.377-.236-1.78-.423l-.314 1.468c.405.185 1.153.347 1.928.356 1.82 0 3.012-.9 3.017-2.293ZM21.122 13h1.603l-1.4-6.7h-1.479a.789.789 0 0 0-.738.491L16.508 13h1.82l.361-1.001h2.224l.209 1Zm-1.934-2.374L20.1 8.11l.525 2.516h-1.437ZM11.896 6.3 10.463 13H8.729l1.434-6.7h1.733Z"
            fill="#fff" />
    </g>
    <rect x="32" width="24" height="20" rx="2" fill="#006" />
    <path fill-rule="evenodd" clip-rule="evenodd" d="M45.77 10.386a5.385 5.385 0 1 1-10.77 0 5.385 5.385 0 0 1 10.77 0Z"
        fill="#C00" />
    <path fill-rule="evenodd" clip-rule="evenodd"
        d="M47.616 5.001a5.366 5.366 0 0 0-4.16 1.964h1.089c.149.18.285.371.41.57h-1.909a5.4 5.4 0 0 0-.31.57h2.53c.086.185.162.375.228.57h-2.986a5.35 5.35 0 0 0-.156.57h3.298a5.423 5.423 0 0 1-.156 2.852h-2.986c.066.195.142.385.228.57h2.53a5.395 5.395 0 0 1-.311.57h-1.909c.125.2.262.39.41.57h1.089a5.387 5.387 0 0 1-.544.57A5.385 5.385 0 1 0 47.616 5Z"
        fill="#F90" />
    <path fill-rule="evenodd" clip-rule="evenodd"
        d="M39.127 10.976a1.02 1.02 0 0 0-.13-.01c-.331 0-.499.114-.499.339 0 .138.082.226.21.226.238 0 .41-.227.42-.556Zm.426.99h-.485l.011-.23c-.147.18-.345.268-.612.268-.317 0-.534-.248-.534-.607 0-.54.377-.856 1.026-.856.066 0 .151.006.238.017a.546.546 0 0 0 .023-.144c0-.147-.102-.203-.375-.203a1.946 1.946 0 0 0-.619.1c.007-.036.081-.5.081-.5.292-.085.484-.117.7-.117.502 0 .768.226.768.652 0 .114-.018.255-.048.44-.05.322-.16 1.011-.174 1.18Zm-1.865 0h-.585l.335-2.1-.747 2.1h-.399l-.05-2.088-.351 2.088h-.547l.457-2.731h.84l.051 1.529.513-1.53h.935l-.452 2.732Zm10.649-.99a1.014 1.014 0 0 0-.13-.01c-.332 0-.499.114-.499.339 0 .138.081.226.21.226.238 0 .41-.227.42-.556Zm.426.99h-.485l.011-.23c-.148.18-.345.268-.612.268-.317 0-.534-.248-.534-.607 0-.54.377-.856 1.026-.856.066 0 .151.006.238.017a.546.546 0 0 0 .023-.144c0-.147-.102-.203-.375-.203a1.951 1.951 0 0 0-.62.1c.007-.036.082-.5.082-.5.292-.085.484-.117.7-.117.502 0 .768.226.767.652.001.114-.017.255-.047.44-.05.322-.16 1.011-.174 1.18Zm-6.611-.034c-.16.05-.285.072-.42.072-.3 0-.462-.171-.462-.488-.004-.098.043-.356.08-.592l.253-1.516h.581l-.067.336h.35l-.079.534h-.352c-.067.423-.163.949-.165 1.019 0 .114.061.164.2.164a.474.474 0 0 0 .158-.02l-.077.491Zm1.781-.018c-.2.06-.392.09-.597.09-.65-.001-.99-.34-.99-.991 0-.76.432-1.319 1.018-1.319.479 0 .785.313.785.804 0 .163-.021.322-.072.546H42.92c-.04.323.167.457.505.457.208 0 .396-.043.604-.14l-.096.553Zm-.327-1.317c.003-.047.061-.397-.27-.397-.185 0-.318.141-.372.397h.642Zm-3.703-.151c0 .281.136.475.445.62.237.112.274.145.274.246 0 .138-.105.2-.336.2-.175 0-.337-.027-.524-.087l-.08.513c.133.029.25.056.608.066.617 0 .902-.235.902-.743 0-.305-.12-.484-.412-.619-.245-.112-.274-.137-.274-.241 0-.12.098-.182.286-.182.115 0 .272.013.42.034l.084-.516a3.949 3.949 0 0 0-.515-.043c-.654 0-.88.342-.878.752Zm6.873-.693c.163 0 .314.042.523.148l.096-.593c-.086-.034-.388-.231-.643-.231-.391 0-.722.194-.955.514-.34-.112-.479.115-.65.341l-.151.036c.011-.075.021-.149.018-.224h-.537c-.073.688-.203 1.384-.305 2.072l-.026.15h.584c.098-.635.151-1.04.184-1.316l.22-.122c.033-.123.136-.164.343-.159a2.486 2.486 0 0 0-.042.456c0 .727.393 1.179 1.022 1.179.162 0 .301-.021.517-.08l.102-.622c-.194.095-.352.14-.496.14-.34 0-.546-.251-.546-.666 0-.601.306-1.023.742-1.023Zm4.949-.518-.13.789c-.16-.21-.331-.363-.558-.363-.295 0-.563.224-.74.553a4.633 4.633 0 0 1-.497-.137v.002c.02-.184.028-.296.026-.334h-.537c-.073.688-.203 1.384-.305 2.072l-.027.15h.585c.08-.513.14-.94.184-1.277.2-.18.3-.338.502-.328a1.9 1.9 0 0 0-.142.721c0 .555.28.922.706.922a.69.69 0 0 0 .539-.245l-.028.206h.553l.446-2.731h-.577Zm-.731 2.218c-.199 0-.3-.147-.3-.438 0-.436.189-.746.454-.746.2 0 .31.153.31.435 0 .44-.192.75-.464.75Z"
        fill="#006" />
    <path fill-rule="evenodd" clip-rule="evenodd"
        d="M37.857 11.803h-.585l.336-2.1-.748 2.1h-.399l-.049-2.087-.352 2.087h-.547l.457-2.731h.84l.024 1.69.567-1.69h.908l-.452 2.731Zm1.439-.99a.963.963 0 0 0-.13-.01c-.331 0-.5.114-.5.339 0 .138.083.226.21.226.239 0 .41-.226.42-.555Zm.426.99h-.485l.011-.23c-.147.18-.345.268-.612.268-.317 0-.534-.248-.534-.607 0-.541.377-.856 1.026-.856.066 0 .151.006.238.017a.552.552 0 0 0 .023-.144c0-.147-.102-.202-.375-.202a1.944 1.944 0 0 0-.619.1l.081-.5a2.33 2.33 0 0 1 .7-.118c.502 0 .768.226.767.652.001.114-.017.255-.047.44a35.85 35.85 0 0 0-.174 1.18Zm7.841-2.657-.096.592c-.209-.104-.36-.147-.522-.147-.437 0-.743.422-.743 1.024 0 .414.206.665.546.665.144 0 .303-.045.496-.14l-.102.622c-.216.059-.355.08-.517.08-.63 0-1.022-.453-1.022-1.18 0-.976.542-1.658 1.317-1.658.256 0 .557.108.643.142Zm.942 1.667a.955.955 0 0 0-.13-.01c-.331 0-.5.114-.5.339 0 .138.083.226.21.226.238 0 .41-.226.42-.555Zm.425.99h-.484l.011-.23c-.148.18-.345.268-.612.268-.317 0-.535-.248-.535-.607 0-.541.378-.856 1.027-.856.066 0 .15.006.238.017a.55.55 0 0 0 .023-.144c0-.147-.102-.202-.375-.202a1.945 1.945 0 0 0-.619.1l.081-.5a2.33 2.33 0 0 1 .7-.118c.502 0 .768.226.767.652.001.114-.018.255-.047.44-.05.321-.16 1.012-.174 1.18Zm-6.61-.034c-.16.05-.285.072-.42.072-.299 0-.462-.172-.462-.488-.004-.098.043-.356.08-.592l.254-1.516h.58l-.067.336h.298l-.08.534h-.299c-.067.423-.163.949-.165 1.018 0 .115.062.165.2.165a.467.467 0 0 0 .158-.02l-.077.49Zm1.78-.018c-.199.061-.392.09-.596.09-.65 0-.99-.34-.99-.991 0-.76.432-1.319 1.017-1.319.48 0 .786.313.786.804 0 .163-.022.322-.072.547h-1.157c-.04.322.167.456.505.456.208 0 .395-.043.604-.14l-.096.553Zm-.326-1.317c.003-.047.062-.397-.27-.397-.185 0-.318.141-.372.397h.642Zm-3.702-.151c0 .282.136.475.445.62.237.112.273.145.273.246 0 .138-.104.2-.335.2-.175 0-.337-.026-.524-.087l-.08.513c.132.029.25.056.608.066.617 0 .902-.235.902-.743 0-.305-.12-.484-.412-.619-.245-.112-.274-.137-.274-.241 0-.12.098-.182.287-.182.114 0 .27.013.42.034l.083-.515a3.978 3.978 0 0 0-.515-.044c-.654 0-.88.342-.878.752Zm11.952 1.52h-.553l.028-.207a.69.69 0 0 1-.54.246c-.424 0-.705-.367-.705-.922 0-.74.436-1.362.951-1.362.227 0 .398.093.558.303l.13-.79h.577l-.446 2.732Zm-.862-.513c.272 0 .464-.309.464-.749 0-.282-.11-.435-.31-.435-.266 0-.454.31-.454.746 0 .29.101.438.3.438Zm-1.704-1.708c-.073.688-.203 1.384-.304 2.072l-.027.15h.585c.209-1.359.26-1.624.587-1.59.053-.279.15-.522.222-.645-.245-.051-.381.087-.56.35.014-.113.04-.224.035-.337h-.538Zm-4.813 0c-.073.688-.203 1.384-.305 2.072l-.027.15h.585c.21-1.359.26-1.624.587-1.59.053-.279.15-.522.223-.645-.245-.051-.382.087-.56.35.013-.113.04-.224.034-.337h-.537Z"
        fill="#fff" />
    <rect x="64" width="24" height="20" rx="2" fill="#0069AA" />
    <path fill-rule="evenodd" clip-rule="evenodd"
        d="M78.547 9.99a3.485 3.485 0 0 0-2.236-3.25v6.5a3.485 3.485 0 0 0 2.236-3.25Zm-4.728 3.248V6.74a3.488 3.488 0 0 0-2.235 3.249 3.487 3.487 0 0 0 2.235 3.248Zm1.247-8.742a5.494 5.494 0 1 0 .002 10.987 5.494 5.494 0 0 0-.002-10.987ZM75.052 16c-3.32.016-6.052-2.674-6.052-5.948C69 6.474 71.732 4 75.052 4h1.556c3.28 0 6.274 2.473 6.274 6.052 0 3.273-2.994 5.948-6.274 5.948h-1.556Z"
        fill="#fff" />
    <rect x="96.25" y=".25" width="23.5" height="19.5" rx="1.75" fill="#fff" />
    <path fill-rule="evenodd" clip-rule="evenodd"
        d="M100.396 10.008c-.168.143-.382.206-.725.206h-.142V8.498h.142c.343 0 .548.059.725.21a.872.872 0 0 1 0 1.3Zm-.619-1.95H99v2.596h.772c.412 0 .708-.094.969-.3.309-.245.492-.614.492-.997 0-.766-.598-1.298-1.456-1.298Zm1.7.001h.527v2.595h-.527V8.059Zm1.821.995c-.318-.112-.411-.186-.411-.326 0-.163.167-.287.395-.287.158 0 .289.06.428.209l.275-.345a1.21 1.21 0 0 0-.796-.289c-.48 0-.846.32-.846.742 0 .359.17.54.667.714.207.069.312.116.366.148a.304.304 0 0 1 .158.267c0 .211-.175.367-.411.367a.628.628 0 0 1-.577-.347l-.341.316c.244.342.536.494.939.494.549 0 .936-.351.936-.852 0-.413-.18-.6-.782-.811Zm.947.303c0 .763.626 1.355 1.432 1.355.227 0 .422-.043.662-.152v-.596c-.212.204-.398.284-.639.284-.532 0-.909-.369-.909-.895a.88.88 0 0 1 .886-.89c.251 0 .443.084.662.291V8.16a1.401 1.401 0 0 0-.651-.159c-.801 0-1.443.603-1.443 1.357Zm6.38.444-.723-1.742h-.577l1.15 2.66h.284l1.172-2.66h-.573l-.733 1.742Zm1.545.853h1.5v-.44h-.971v-.7h.934v-.44h-.934v-.576h.971v-.44h-1.5v2.596Zm2.533-1.402h-.153v-.785h.162c.331 0 .508.133.508.386 0 .26-.178.399-.517.399Zm1.061-.428c0-.486-.348-.765-.959-.765h-.785v2.595h.53V9.61h.069l.73 1.044H116l-.853-1.094c.399-.078.617-.339.617-.736Z"
        fill="#1A1918" />
    <path fill-rule="evenodd" clip-rule="evenodd"
        d="M109.399 9.362c0 .748-.633 1.353-1.414 1.353-.781 0-1.414-.605-1.414-1.353 0-.747.633-1.353 1.414-1.353.781 0 1.414.606 1.414 1.353Z"
        fill="#E7772F" />
    <path d="M97 20h21.788c.669 0 1.212-.544 1.212-1.215V12c-3 2.5-8 6-23 8Z" fill="#E7772F" />
    <rect x="96.25" y=".25" width="23.5" height="19.5" rx="1.75" stroke="#E7772F" stroke-width=".5" />
    <rect x="128.25" height="19.5" rx="1.75" stroke="#C5C6C9" stroke-width=".5" />
    <defs>
        <clipPath id="a">
            <path fill="#fff" d="M1 6h22v7.281H1z" />
        </clipPath>
    </defs>
</svg>