<svg width="34" height="32" viewBox="0 0 34 32" fill="none" xmlns="http://www.w3.org/2000/svg">
    <g clip-path="url(#clip0_4_20)">
        <g filter="url(#filter0_d_4_20)">
            <path
                d="M5 11.333c0 2.193.926 4.223 2.399 5.515L17 26l9.55-9.155A7.374 7.374 0 0029 11.333C29 7.283 25.776 4 21.8 4A7.1 7.1 0 0017 5.867 7.1 7.1 0 0012.2 4C8.224 4 5 7.283 5 11.333z"
                fill="#404145" fill-opacity=".3" />
        </g>
        <g filter="url(#filter1_d_4_20)">
            <path
                d="M7.916 16.305l-.011-.01-.012-.01C6.592 15.141 5.75 13.32 5.75 11.332c0-3.649 2.9-6.583 6.45-6.583a6.35 6.35 0 014.295 1.672l.505.46.505-.46A6.35 6.35 0 0121.8 4.75c3.55 0 6.45 2.934 6.45 6.583a6.624 6.624 0 01-2.2 4.953l-.01.009-.01.009-9.032 8.658-9.082-8.657z"
                stroke="#fff" stroke-width="1.5" />
        </g>
    </g>
    <defs>
        <filter id="filter0_d_4_20" x="0" y="0" width="34" height="32" filterUnits="userSpaceOnUse"
            color-interpolation-filters="sRGB">
            <feFlood flood-opacity="0" result="BackgroundImageFix" />
            <feColorMatrix in="SourceAlpha" values="0 0 0 0 0 0 0 0 0 0 0 0 0 0 0 0 0 0 127 0" result="hardAlpha" />
            <feOffset dy="1" />
            <feGaussianBlur stdDeviation="2.5" />
            <feColorMatrix values="0 0 0 0 0 0 0 0 0 0 0 0 0 0 0 0 0 0 0.11 0" />
            <feBlend in2="BackgroundImageFix" result="effect1_dropShadow_4_20" />
            <feBlend in="SourceGraphic" in2="effect1_dropShadow_4_20" result="shape" />
        </filter>
        <filter id="filter1_d_4_20" x="0" y="0" width="34" height="32" filterUnits="userSpaceOnUse"
            color-interpolation-filters="sRGB">
            <feFlood flood-opacity="0" result="BackgroundImageFix" />
            <feColorMatrix in="SourceAlpha" values="0 0 0 0 0 0 0 0 0 0 0 0 0 0 0 0 0 0 127 0" result="hardAlpha" />
            <feOffset dy="1" />
            <feGaussianBlur stdDeviation="2.5" />
            <feColorMatrix values="0 0 0 0 0 0 0 0 0 0 0 0 0 0 0 0 0 0 0.11 0" />
            <feBlend in2="BackgroundImageFix" result="effect1_dropShadow_4_20" />
            <feBlend in="SourceGraphic" in2="effect1_dropShadow_4_20" result="shape" />
        </filter>
    </defs>
</svg>