<?xml version="1.0" encoding="iso-8859-1"?>
<!-- Generator: Adobe Illustrator 18.0.0, SVG Export Plug-In . SVG Version: 6.00 Build 0)  -->
<!DOCTYPE svg PUBLIC "-//W3C//DTD SVG 1.1//EN" "http://www.w3.org/Graphics/SVG/1.1/DTD/svg11.dtd">
<!-- License: CC0. Made by SVG Repo: https://www.svgrepo.com/svg/34548/king-crown -->
<svg version="1.1" id="Capa_1" xmlns="http://www.w3.org/2000/svg" xmlns:xlink="http://www.w3.org/1999/xlink" x="0px"
    y="0px" viewBox="0 0 297 297" style="enable-background:new 0 0 297 297;" xml:space="preserve">
    <g>
        <g>
            <path fill="#62646a"
                d="M25.282,220.174V261.9c0,5.422,4.396,9.818,9.817,9.818h226.8c5.423,0,9.818-4.397,9.818-9.818v-41.727H25.282z" />
        </g>
        <g>
            <path fill="#62646a" d="M272.243,206.428c1.928-17.027,8.827-54.652,14.238-82.127C292.676,121.475,297,115.24,297,108
			c0-9.881-8.038-17.918-17.918-17.918c-9.881,0-17.919,8.037-17.919,17.918c0,3.205,0.856,6.209,2.337,8.816l-16.17,16.17
			c-4.822-11.35-7.186-28.85-7.824-42.23c5.039-3.174,8.403-8.773,8.403-15.156c0-9.879-8.038-17.918-17.918-17.918
			c-9.881,0-17.919,8.039-17.919,17.918c0,4.453,1.643,8.523,4.34,11.66c-10.464,18.023-25.075,35.371-34.143,45.428
			c-7.97-16.629-16.955-49.719-22.526-75.555c4.065-3.287,6.675-8.309,6.675-13.932c0-9.881-8.037-17.92-17.918-17.92
			c-9.881,0-17.918,8.039-17.918,17.92c0,5.623,2.609,10.646,6.677,13.932c-5.57,25.838-14.555,58.932-22.529,75.561
			c-9.063-10.047-23.667-27.381-34.143-45.434c2.698-3.137,4.34-7.207,4.34-11.66c0-9.879-8.037-17.918-17.918-17.918
			c-9.88,0-17.918,8.039-17.918,17.918c0,6.387,3.367,11.986,8.409,15.16c-0.629,13.379-2.99,30.877-7.824,42.232L33.5,116.816
			c1.48-2.607,2.336-5.611,2.336-8.816c0-9.881-8.037-17.918-17.918-17.918C8.038,90.082,0,98.119,0,108
			c0,7.24,4.324,13.475,10.519,16.301c5.411,27.473,12.31,65.098,14.238,82.127H272.243z M148.5,154.883
			c9.881,0,17.918,8.037,17.918,17.918c0,9.881-8.037,17.918-17.918,17.918c-9.881,0-17.918-8.037-17.918-17.918
			C130.582,162.92,138.619,154.883,148.5,154.883z" />
        </g>
    </g>
</svg>