<svg version="1.1" id="Layer_1" xmlns="http://www.w3.org/2000/svg" xmlns:xlink="http://www.w3.org/1999/xlink" x="0px"
    y="0px" viewBox="0 0 290 290" style="enable-background:new 0 0 290 290;" xml:space="preserve"
    transform="matrix(6.123233995736766e-17,1,-1,6.123233995736766e-17,0,0)">
    <g>
        <path fill="#404145"
            d="M255,110c-19.299,0-35,15.701-35,35s15.701,35,35,35s35-15.701,35-35S274.299,110,255,110z"></path>
        <path fill="#404145" d="M35,110c-19.299,0-35,15.701-35,35s15.701,35,35,35s35-15.701,35-35S54.299,110,35,110z">
        </path>
        <path fill="#404145"
            d="M145,110c-19.299,0-35,15.701-35,35s15.701,35,35,35s35-15.701,35-35S164.299,110,145,110z"></path>
    </g>
</svg>