<svg xmlns="http://www.w3.org/2000/svg" width="24" height="24" viewBox="0 0 24 24" fill="#74767E"><path d="M10.827 9.644v3.331a6.199 6.199 0 0 0-.478-.09c-1.599-.247-3.06.842-3.299 2.527a2.964 2.964 0 0 0 2.342 3.357c1.612.324 3.21-.855 3.4-2.527.062-.558.037-1.128.037-1.699V1.893h3.173c.34 3.085 2.002 4.77 4.998 5.094v3.24a7.673 7.673 0 0 1-2.594-.427 7.83 7.83 0 0 1-2.354-1.297v.234c0 2.333.013 4.666.013 6.999 0 2.307-.957 4.109-2.833 5.379-1.12.765-2.38 1.076-3.727.972-2.04-.155-3.638-1.114-4.771-2.864-1.75-2.735-1.07-6.455 1.498-8.4 1.31-.985 2.782-1.373 4.381-1.218.063.013.139.026.214.04Z"></path></svg>