<svg version="1.1" id="Layer_1" xmlns="http://www.w3.org/2000/svg" x="0" y="0" width="200" height="200"
    viewBox="00 0 200 200" xml:space="preserve">
    <style>
        .st10 {
            fill: #fff
        }
    </style>
    <path
        d="M200 100c0 12.9-12.3 23.2-17 34.4-4.8 11.6-3.5 27.6-12.3 36.3-8.7 8.7-24.7 7.5-36.3 12.3-11.2 4.6-21.5 17-34.4 17s-23.2-12.3-34.4-17c-11.6-4.8-27.6-3.5-36.3-12.3-8.7-8.7-7.5-24.7-12.3-36.3-4.6-11.2-17-21.5-17-34.4s12.3-23.2 17-34.4c4.8-11.6 3.5-27.6 12.3-36.3 8.7-8.7 24.7-7.5 36.3-12.3 11.2-4.6 21.5-17 34.4-17s23.2 12.4 34.4 17c11.6 4.8 27.6 3.5 36.3 12.3 8.7 8.7 7.5 24.7 12.3 36.3 4.6 11.2 17 21.5 17 34.4z"
        fill="#FFC200" />
    <path
        d="M100 0c11.2 0, 21.5 12.4, 34.4 17c11.6 4.8, 27.6 3.5, 36.3 12.3c8.7 8.7, 7.5 24.7, 12.3 36.3c4.6 11.2, 17 21.5, 17 34.4c0 12.9-12.3 23.2-17 34.4c-4.8 11.6-3.5 27.6-12.3 36.3c-8.7 8.7-24.7 7.5-36.3 12.3c-11.2 4.6-21.5 17-34.4 17v-200z"
        fill="#F7BC00" />
    <path
        d="M131.5 175.9c-3.9 1.6-7.7 4.2-11.5 6.8-1.3.9-2.6 1.8-3.9 2.6-5.1 3.4-10.4 6.2-16.1 6.2-5.8 0-11-2.8-16.1-6.1-1.3-.9-2.7-1.8-4-2.7-3.7-2.6-7.5-5.2-11.3-6.8-4.1-1.7-8.7-2.6-13.3-3.4-1.5-.3-3-.6-4.4-.9-6-1.3-11.6-3-15.4-6.9-3.9-3.9-5.6-9.4-6.9-15.4-.3-1.5-.6-2.9-.9-4.4-.9-4.6-1.8-9.3-3.5-13.4-1.6-3.9-4.2-7.7-6.8-11.5-.9-1.3-1.8-2.6-2.6-3.9-3.4-5.1-6.2-10.4-6.2-16.1 0-5.8 2.8-11 6.1-16.1.9-1.3 1.8-2.7 2.7-4 2.6-3.7 5.2-7.5 6.8-11.3 1.7-4.1 2.6-8.7 3.4-13.3.3-1.5.6-3 .9-4.4 1.3-6 3-11.6 6.9-15.4 3.9-3.9 9.4-5.6 15.4-6.9 1.5-.3 2.9-.6 4.4-.9 4.6-.9 9.3-1.8 13.4-3.5 3.9-1.6 7.7-4.2 11.5-6.8 1.3-.9 2.6-1.8 3.9-2.6 5.1-3.4 10.4-6.2 16.1-6.2s11 2.8 16.1 6.2c1.3.8 2.6 1.7 3.9 2.6 3.8 2.6 7.6 5.2 11.5 6.8 4.1 1.7 8.7 2.6 13.3 3.4 1.5.3 3 .6 4.4.9 6 1.3 11.6 3 15.4 6.9 3.9 3.9 5.6 9.4 6.9 15.4.3 1.5.6 2.9.9 4.4.9 4.6 1.8 9.3 3.5 13.4 1.6 3.9 4.2 7.7 6.8 11.5.9 1.3 1.8 2.6 2.6 3.9 3.4 5.1 6.2 10.4 6.2 16.1 0 5.8-2.8 11-6.1 16.1-.9 1.3-1.8 2.7-2.7 4-2.6 3.7-5.2 7.5-6.8 11.3-1.7 4.1-2.6 8.7-3.4 13.3-.3 1.5-.6 3-.9 4.4-1.3 6-3 11.6-6.9 15.4-3.9 3.9-9.4 5.6-15.4 6.9-1.5.3-2.9.6-4.4.9-4.8.9-9.5 1.8-13.5 3.5z"
        style="fill:none;stroke:#fff" />
    <text x="100" y="90" font-family="Arial" font-size="40" fill="white" text-anchor="middle"
        font-weight="bold">TOP</text>
    <text x="100" y="135" font-family="Arial" font-size="40" fill="white" text-anchor="middle"
        font-weight="bold">RATED</text>
</svg>