<svg width="64" height="64" viewBox="0 0 64 64" xmlns="http://www.w3.org/2000/svg">
    <g fill="none" fill-rule="evenodd">
        <path d="M32 64C14.327 64 0 49.674 0 32S14.327 0 32 0c17.674 0 32 14.326 32 32S49.673 64 32 64z" fill="#777" />
        <path
            d="M44.179 39.028c0 2.802-1.869 4.48-4.62 4.48H24.44c-2.75 0-4.619-1.678-4.619-4.48 0-3.91.917-9.913 5.986-9.913.536 0 2.802 2.405 6.193 2.405 3.39 0 5.657-2.405 6.193-2.405 5.069 0 5.986 6.003 5.986 9.913zM38.643 23.58c0 3.667-2.976 6.643-6.643 6.643s-6.643-2.976-6.643-6.643c0-3.668 2.976-6.643 6.643-6.643s6.643 2.975 6.643 6.643z"
            fill="#FFF" />
        <path
            d="M61.583 31.932c0 16.376-13.275 29.651-29.652 29.651-16.375 0-29.65-13.275-29.65-29.651 0-16.376 13.275-29.65 29.65-29.65 16.377 0 29.652 13.274 29.652 29.65z"
            stroke="#FFF" stroke-width=".5" />
    </g>
</svg>